HIERARCHY
ROOT hip
{
  OFFSET 0 0 0
  CHANNELS 6 Xposition Yposition Zposition Zrotation Yrotation Xrotation
  JOINT abdomen
  {
    OFFSET 0 20.6881 -0.73152
    CHANNELS 3 Zrotation Xrotation Yrotation
    JOINT chest
    {
      OFFSET 0 11.7043 -0.48768
      CHANNELS 3 Zrotation Xrotation Yrotation
      JOINT neck
      {
        OFFSET 0 22.1894 -2.19456
        CHANNELS 3 Zrotation Xrotation Yrotation
        JOINT head
        {
          OFFSET -0.24384 7.07133 1.2192
          CHANNELS 3 Zrotation Xrotation Yrotation
          JOINT leftEye
          {
            OFFSET 4.14528 8.04674 8.04672
            CHANNELS 3 Zrotation Xrotation Yrotation
            End Site
            {
              OFFSET 1 0 0
            }
          }
          JOINT rightEye
          {
            OFFSET -3.6576 8.04674 8.04672
            CHANNELS 3 Zrotation Xrotation Yrotation
            End Site
            {
              OFFSET 1 0 0
            }
          }
        }
      }
      JOINT rCollar
      {
        OFFSET -2.68224 19.2634 -4.8768
        CHANNELS 3 Zrotation Xrotation Yrotation
        JOINT rShldr
        {
          OFFSET -8.77824 -1.95073 1.46304
          CHANNELS 3 Zrotation Xrotation Yrotation
          JOINT rForeArm
          {
            OFFSET -28.1742 -1.7115 0.48768
            CHANNELS 3 Zrotation Xrotation Yrotation
            JOINT rHand
            {
              OFFSET -22.5879 0.773209 7.07136
              CHANNELS 3 Zrotation Xrotation Yrotation
              JOINT rThumb1
              {
                OFFSET -1.2192 -0.487915 3.41376
                CHANNELS 3 Zrotation Xrotation Yrotation
                JOINT rThumb2
                {
                  OFFSET -3.37035 -0.52449 3.41376
                  CHANNELS 3 Zrotation Xrotation Yrotation
                  End Site
                  {
                    OFFSET -1.78271 -1.18214 1.43049
                  }
                }
              }
              JOINT rIndex1
              {
                OFFSET -7.75947 0.938293 5.60832
                CHANNELS 3 Zrotation Xrotation Yrotation
                JOINT rIndex2
                {
                  OFFSET -2.54057 -0.884171 1.56538
                  CHANNELS 3 Zrotation Xrotation Yrotation
                  End Site
                  {
                    OFFSET -1.62519 -0.234802 1.16502
                  }
                }
              }
              JOINT rMid1
              {
                OFFSET -8.24714 1.18213 3.41376
                CHANNELS 3 Zrotation Xrotation Yrotation
                JOINT rMid2
                {
                  OFFSET -3.10165 -0.590103 1.0647
                  CHANNELS 3 Zrotation Xrotation Yrotation
                  End Site
                  {
                    OFFSET -2.48547 -0.328903 0.83742
                  }
                }
              }
              JOINT rRing1
              {
                OFFSET -8.82822 0.546677 1.51678
                CHANNELS 3 Zrotation Xrotation Yrotation
                JOINT rRing2
                {
                  OFFSET -2.60934 -0.819778 -0.0198488
                  CHANNELS 3 Zrotation Xrotation Yrotation
                  End Site
                  {
                    OFFSET -2.33842 -0.294052 0.168128
                  }
                }
              }
              JOINT rPinky1
              {
                OFFSET -8.27202 -0.0477905 -0.4584
                CHANNELS 3 Zrotation Xrotation Yrotation
                JOINT rPinky2
                {
                  OFFSET -1.82734 -0.647385 -0.700984
                  CHANNELS 3 Zrotation Xrotation Yrotation
                  End Site
                  {
                    OFFSET -1.69225 -0.51767 -0.607171
                  }
                }
              }
            }
          }
        }
      }
      JOINT lCollar
      {
        OFFSET 2.68224 19.2634 -4.8768
        CHANNELS 3 Zrotation Xrotation Yrotation
        JOINT lShldr
        {
          OFFSET 8.77824 -1.95073 1.46304
          CHANNELS 3 Zrotation Xrotation Yrotation
          JOINT lForeArm
          {
            OFFSET 28.1742 -1.7115 0.48768
            CHANNELS 3 Zrotation Xrotation Yrotation
            JOINT lHand
            {
              OFFSET 22.5879 0.773209 7.07136
              CHANNELS 3 Zrotation Xrotation Yrotation
              JOINT lThumb1
              {
                OFFSET 1.2192 -0.487915 3.41376
                CHANNELS 3 Zrotation Xrotation Yrotation
                JOINT lThumb2
                {
                  OFFSET 3.37035 -0.52449 3.41376
                  CHANNELS 3 Zrotation Xrotation Yrotation
                  End Site
                  {
                    OFFSET 1.78271 -1.18214 1.43049
                  }
                }
              }
              JOINT lIndex1
              {
                OFFSET 7.75947 0.938293 5.60832
                CHANNELS 3 Zrotation Xrotation Yrotation
                JOINT lIndex2
                {
                  OFFSET 2.54057 -0.884171 1.56538
                  CHANNELS 3 Zrotation Xrotation Yrotation
                  End Site
                  {
                    OFFSET 1.62519 -0.234802 1.16502
                  }
                }
              }
              JOINT lMid1
              {
                OFFSET 8.24714 1.18213 3.41376
                CHANNELS 3 Zrotation Xrotation Yrotation
                JOINT lMid2
                {
                  OFFSET 3.10165 -0.590103 1.0647
                  CHANNELS 3 Zrotation Xrotation Yrotation
                  End Site
                  {
                    OFFSET 2.48547 -0.328903 0.83742
                  }
                }
              }
              JOINT lRing1
              {
                OFFSET 8.82822 0.546677 1.51678
                CHANNELS 3 Zrotation Xrotation Yrotation
                JOINT lRing2
                {
                  OFFSET 2.60934 -0.819778 -0.0198488
                  CHANNELS 3 Zrotation Xrotation Yrotation
                  End Site
                  {
                    OFFSET 2.33842 -0.294052 0.168128
                  }
                }
              }
              JOINT lPinky1
              {
                OFFSET 8.27202 -0.0477905 -0.4584
                CHANNELS 3 Zrotation Xrotation Yrotation
                JOINT lPinky2
                {
                  OFFSET 1.82734 -0.647385 -0.700984
                  CHANNELS 3 Zrotation Xrotation Yrotation
                  End Site
                  {
                    OFFSET 1.69225 -0.51767 -0.607171
                  }
                }
              }
            }
          }
        }
      }
    }
  }
  JOINT rButtock
  {
    OFFSET -8.77824 4.35084 1.2192
    CHANNELS 3 Zrotation Xrotation Yrotation
    JOINT rThigh
    {
      OFFSET 0 -1.70687 -2.19456
      CHANNELS 3 Zrotation Xrotation Yrotation
      JOINT rShin
      {
        OFFSET 0 -36.8199 0.73152
        CHANNELS 3 Zrotation Xrotation Yrotation
        JOINT rFoot
        {
          OFFSET 0.73152 -45.1104 -5.12064
          CHANNELS 3 Zrotation Xrotation Yrotation
          End Site
          {
            OFFSET -1.1221 -3.69964 12.103
          }
        }
      }
    }
  }
  JOINT lButtock
  {
    OFFSET 8.77824 4.35084 1.2192
    CHANNELS 3 Zrotation Xrotation Yrotation
    JOINT lThigh
    {
      OFFSET 0 -1.70687 -2.19456
      CHANNELS 3 Zrotation Xrotation Yrotation
      JOINT lShin
      {
        OFFSET 0 -36.8199 0.73152
        CHANNELS 3 Zrotation Xrotation Yrotation
        JOINT lFoot
        {
          OFFSET -0.73152 -45.1104 -5.12064
          CHANNELS 3 Zrotation Xrotation Yrotation
          End Site
          {
            OFFSET 1.1221 -3.69964 12.103
          }
        }
      }
    }
  }
}
MOTION
Frames:	6
Frame Time:	0.00833333
-53.0571 80.2528 -4.26852 172.071 27.5185 -169.878 -1.14371 -1.12001 11.391 -2.13243 0.0300072 3.39191 -2.84787 -18.2559 -5.61854 7.34676 34.3284 -8.0926 -0.0 0.0 0.0 -0.0 0.0 0.0 1.08615e-13 8.26962e-14 -4.59441e-13 70.4315 49.835 -0.0960123 -28.092 -31.192 69.155 -0.166396 11.5477 1.64549 -1.26596e-09 -3.76083e-09 1.6283e-09 -2.16737e-09 -6.63402e-09 2.82603e-09 -1.26596e-09 -3.76083e-09 1.6283e-09 7.73091 5.47488 0.417314 -1.26596e-09 -3.76085e-09 1.62831e-09 2.90554 0.965183 0.102902 -1.26596e-09 -3.76084e-09 1.62831e-09 10.2786 0.731801 0.0259123 -1.26598e-09 -3.76083e-09 1.62832e-09 2.22167 -0.733487 -0.20892 1.08465e-13 8.26921e-14 -4.59739e-13 -93.1946 47.7679 39.6875 28.4295 -36.128 -77.2238 0.449852 18.7164 -2.72919 -1.95344e-09 4.46795e-09 2.08958e-09 -3.3435e-09 7.77873e-09 3.63758e-09 -1.95345e-09 4.46793e-09 2.08958e-09 -7.73091 5.47488 -0.417314 -1.95344e-09 4.46795e-09 2.08958e-09 -2.90554 0.965183 -0.102902 -1.95345e-09 4.46795e-09 2.08958e-09 -10.2786 0.731801 -0.0259123 -1.95344e-09 4.46795e-09 2.08958e-09 -2.22167 -0.733487 0.20892 -2.03217e-16 0.0 -3.88251e-19 9.50431 -3.76686 6.05809 0.0356244 28.1078 0.827471 -0.447039 9.30498 -2.34053 2.03217e-16 0.0 3.88251e-19 -1.69538 -56.4293 -8.45145 4.34517 78.222 -4.46144 -4.56797 23.4942 17.2315
-52.0465 81.1166 -6.34063 171.929 28.0092 -169.623 -1.3845 -1.77118 11.8416 -2.25569 -0.0142402 3.51971 -2.91374 -18.0525 -5.76865 7.84921 34.5341 -8.43693 -0.0 0.0 0.0 -0.0 0.0 0.0 1.24793e-13 1.08029e-13 -1.57039e-13 70.3308 50.5679 -0.129383 -28.1586 -31.6779 69.9614 -0.177485 11.9316 1.70172 -7.62746e-10 -1.08654e-09 1.02411e-09 -1.30693e-09 -1.94026e-09 1.77548e-09 -7.62743e-10 -1.08655e-09 1.02411e-09 7.73091 5.47488 0.417314 -7.62747e-10 -1.08655e-09 1.02412e-09 2.90554 0.965183 0.102902 -7.62741e-10 -1.08655e-09 1.02412e-09 10.2786 0.731801 0.0259123 -7.6276e-10 -1.08655e-09 1.02413e-09 2.22167 -0.733487 -0.20892 1.2467e-13 1.08025e-13 -1.57326e-13 -93.5595 47.5265 40.8255 28.4226 -36.4823 -77.8127 0.439309 18.5085 -2.69657 -1.10069e-09 1.55587e-09 7.64674e-10 -1.88907e-09 2.72442e-09 1.33737e-09 -1.1007e-09 1.55586e-09 7.64676e-10 -7.73091 5.47488 -0.417314 -1.10069e-09 1.55587e-09 7.6468e-10 -2.90554 0.965183 -0.102902 -1.1007e-09 1.55587e-09 7.64679e-10 -10.2786 0.731801 -0.0259123 -1.10069e-09 1.55587e-09 7.64677e-10 -2.22167 -0.733487 0.20892 -2.03217e-16 0.0 -3.88251e-19 8.77095 -2.09133 5.95883 0.0607463 25.9235 0.83485 -0.456744 13.3426 -1.37573 2.03217e-16 0.0 3.88251e-19 -2.23243 -56.5528 -9.34275 3.18199 74.9729 -3.3436 -4.4174 23.265 16.8547
-51.0143 81.9558 -8.40923 171.79 28.5449 -169.365 -1.66682 -2.442 12.2466 -2.36104 -0.0819161 3.6357 -2.94682 -17.827 -5.88849 8.28485 34.7476 -8.71576 -0.0 0.0 0.0 -0.0 0.0 0.0 1.14874e-13 1.38455e-13 3.41863e-13 70.2929 51.3032 -0.261047 -28.2151 -32.1143 70.6554 -0.191842 12.4009 1.77072 2.56526e-10 2.84535e-09 -7.68773e-11 4.38412e-10 4.98037e-09 -1.39232e-10 2.56529e-10 2.84535e-09 -7.68757e-11 7.73091 5.47488 0.417314 2.56526e-10 2.84534e-09 -7.68682e-11 2.90554 0.965183 0.102902 2.56532e-10 2.84535e-09 -7.68679e-11 10.2786 0.731801 0.0259123 2.56516e-10 2.84535e-09 -7.68545e-11 2.22167 -0.733487 -0.20892 1.14807e-13 1.38452e-13 3.41587e-13 -93.9617 47.2145 41.9933 28.4086 -36.8592 -78.4497 0.42606 18.2408 -2.65474 5.06879e-10 -3.45162e-09 -1.54425e-09 8.54989e-10 -5.97095e-09 -2.67289e-09 5.06878e-10 -3.45163e-09 -1.54424e-09 -7.73091 5.47488 -0.417314 5.06881e-10 -3.45163e-09 -1.54424e-09 -2.90554 0.965183 -0.102902 5.06875e-10 -3.45162e-09 -1.54424e-09 -10.2786 0.731801 -0.0259123 5.06882e-10 -3.45162e-09 -1.54424e-09 -2.22167 -0.733487 0.20892 -2.03217e-16 0.0 -3.88251e-19 8.02317 -0.483398 5.90152 0.0747586 23.7469 0.846554 -0.527916 17.688 -0.6726 2.03217e-16 0.0 3.88251e-19 -2.55772 -56.4982 -9.95673 2.38729 71.4987 -2.59974 -4.19804 23.0428 16.2255
-49.9585 82.7581 -10.4625 171.683 29.128 -169.081 -1.97091 -3.11582 12.6212 -2.4461 -0.150716 3.74473 -2.97525 -17.6163 -5.99492 8.68684 34.9729 -8.96427 -0.0 0.0 0.0 -0.0 0.0 0.0 8.86881e-14 1.50941e-13 8.17804e-13 70.3 52.0043 -0.450333 -28.2613 -32.5033 71.2646 -0.205423 12.8153 1.83196 1.38348e-09 6.89474e-09 -1.26497e-09 2.36928e-09 1.21088e-08 -2.2052e-09 1.38348e-09 6.89475e-09 -1.26497e-09 7.73091 5.47488 0.417314 1.38348e-09 6.89475e-09 -1.26496e-09 2.90554 0.965183 0.102902 1.38349e-09 6.89475e-09 -1.26496e-09 10.2786 0.731801 0.0259123 1.38347e-09 6.89475e-09 -1.26495e-09 2.22167 -0.733487 -0.20892 8.86829e-14 1.50939e-13 8.17539e-13 -94.3566 46.8722 43.1114 28.3878 -37.2467 -79.113 0.412846 17.9662 -2.61199 2.08886e-09 -8.19825e-09 -3.75771e-09 3.5559e-09 -1.4215e-08 -6.51791e-09 2.08886e-09 -8.19825e-09 -3.75771e-09 -7.73091 5.47488 -0.417314 2.08886e-09 -8.19825e-09 -3.7577e-09 -2.90554 0.965183 -0.102902 2.08886e-09 -8.19825e-09 -3.75771e-09 -10.2786 0.731801 -0.0259123 2.08887e-09 -8.19825e-09 -3.75771e-09 -2.22167 -0.733487 0.20892 -2.03217e-16 0.0 -3.88251e-19 7.30965 0.972944 5.87156 0.0822869 21.7942 0.856482 -0.590404 21.9202 -0.28108 2.03217e-16 0.0 3.88251e-19 -2.70399 -56.3226 -10.3416 1.82789 67.8936 -2.09255 -3.9229 22.8216 15.398
-48.887 83.5153 -12.4903 171.622 29.7454 -168.76 -2.2768 -3.77598 12.9806 -2.50866 -0.198344 3.85163 -3.02723 -17.4572 -6.10477 9.08906 35.2135 -9.21806 -0.0 0.0 0.0 -0.0 0.0 0.0 5.60643e-14 1.22452e-13 1.05132e-12 70.3299 52.6349 -0.653253 -28.2955 -32.844 71.8171 -0.213028 13.0348 1.86452 2.20974e-09 9.92155e-09 -2.13049e-09 3.7863e-09 1.74258e-08 -3.7095e-09 2.20974e-09 9.92156e-09 -2.13049e-09 7.73091 5.47488 0.417314 2.20974e-09 9.92156e-09 -2.13048e-09 2.90554 0.965183 0.102902 2.20974e-09 9.92156e-09 -2.13047e-09 10.2786 0.731801 0.0259123 2.20973e-09 9.92156e-09 -2.13046e-09 2.22167 -0.733487 -0.20892 5.61036e-14 1.22452e-13 1.05107e-12 -94.705 46.5429 44.1059 28.3618 -37.6345 -79.7784 0.402095 17.7374 -2.57651 2.86485e-09 -1.03277e-08 -4.79625e-09 4.88089e-09 -1.79156e-08 -8.32237e-09 2.86485e-09 -1.03277e-08 -4.79624e-09 -7.73091 5.47488 -0.417314 2.86485e-09 -1.03277e-08 -4.79624e-09 -2.90554 0.965183 -0.102902 2.86484e-09 -1.03277e-08 -4.79624e-09 -10.2786 0.731801 -0.0259123 2.86485e-09 -1.03277e-08 -4.79624e-09 -2.22167 -0.733487 0.20892 -2.03217e-16 0.0 -3.88251e-19 6.68073 2.19387 5.85373 0.0869354 20.2814 0.858512 -0.54263 25.6194 -0.269349 2.03217e-16 0.0 3.88251e-19 -2.71221 -56.0804 -10.5525 1.42835 64.2512 -1.74301 -3.60411 22.5963 14.4261
-47.8164 84.2119 -14.4775 171.606 30.3995 -168.409 -2.61506 -4.45709 13.3289 -2.54202 -0.224923 3.96003 -3.11269 -17.366 -6.22437 9.50867 35.4939 -9.48972 -0.0 0.0 0.0 -0.0 0.0 0.0 -1.17201e-14 2.22379e-14 9.29098e-13 70.3731 53.198 -0.864513 -28.3216 -33.1448 72.3159 -0.212362 13.008 1.8606 2.68768e-09 1.15682e-08 -2.56996e-09 4.60919e-09 2.02988e-08 -4.47197e-09 2.68768e-09 1.15682e-08 -2.56996e-09 7.73091 5.47488 0.417314 2.68768e-09 1.15682e-08 -2.56995e-09 2.90554 0.965183 0.102902 2.68768e-09 1.15682e-08 -2.56995e-09 10.2786 0.731801 0.0259123 2.68767e-09 1.15682e-08 -2.56993e-09 2.22167 -0.733487 -0.20892 -1.16569e-14 2.22411e-14 9.28875e-13 -95.0102 46.2345 44.9875 28.3309 -38.0312 -80.4557 0.393321 17.5494 -2.54741 2.40823e-09 -8.45297e-09 -4.06429e-09 4.10125e-09 -1.46641e-08 -7.05157e-09 2.40823e-09 -8.45296e-09 -4.06429e-09 -7.73091 5.47488 -0.417314 2.40823e-09 -8.45297e-09 -4.06429e-09 -2.90554 0.965183 -0.102902 2.40823e-09 -8.45296e-09 -4.06429e-09 -10.2786 0.731801 -0.0259123 2.40823e-09 -8.45296e-09 -4.06429e-09 -2.22167 -0.733487 0.20892 -2.03217e-16 0.0 -3.88251e-19 6.13695 3.11508 5.86006 0.0866757 19.2771 0.851034 -0.262425 28.7963 -0.731931 2.03217e-16 0.0 3.88251e-19 -2.53058 -55.7899 -10.4763 1.13196 60.5229 -1.49974 -3.22563 22.3784 13.2436
